<svg xmlns="http://www.w3.org/2000/svg" viewBox="0 0 100 100">
  <rect width="100" height="100" fill="#0A0A0A"/>
  <polygon points="50,5 95,25 95,75 50,95 5,75 5,25" fill="none" stroke="#CC0000" stroke-width="2"/>
  <polygon points="35,35 42,25 50,30 58,25 65,35 60,45 50,40 40,45" fill="#CC0000" opacity="0.9"/>
  <polygon points="38,38 44,32 50,36 56,32 62,38" fill="#0A0A0A"/>
  <circle cx="41" cy="37" r="4" fill="#FF1A1A"/>
  <circle cx="59" cy="37" r="4" fill="#FF1A1A"/>
  <circle cx="41" cy="37" r="2" fill="#0A0A0A"/>
  <circle cx="59" cy="37" r="2" fill="#0A0A0A"/>
  <polygon points="50,42 46,48 54,48" fill="#8B0000"/>
  <polygon points="20,50 35,40 40,55 50,50 60,55 65,40 80,50 65,70 50,65 35,70" fill="#CC0000" opacity="0.7"/>
  <line x1="40" y1="75" x2="35" y2="90" stroke="#CC0000" stroke-width="2"/>
  <line x1="50" y1="75" x2="50" y2="92" stroke="#CC0000" stroke-width="2"/>
  <line x1="60" y1="75" x2="65" y2="90" stroke="#CC0000" stroke-width="2"/>
</svg>
